<?xml version="1.0" standalone="no"?>
<!DOCTYPE svg PUBLIC "-//W3C//DTD SVG 20010904//EN"
 "http://www.w3.org/TR/2001/REC-SVG-20010904/DTD/svg10.dtd">
<svg version="1.0" xmlns="http://www.w3.org/2000/svg"
 width="300.000000pt" height="300.000000pt" viewBox="0 0 300.000000 300.000000"
 preserveAspectRatio="xMidYMid meet">
<metadata>
Created by potrace 1.11, written by Peter Selinger 2001-2013
</metadata>
<g transform="translate(0.000000,300.000000) scale(0.100000,-0.100000)"
fill="#000000" stroke="none">
<path d="M986 1843 c-2 -2 -13 -6 -25 -8 -54 -10 -130 -58 -167 -105 -22 -27
-47 -52 -56 -55 -10 -4 -18 -10 -18 -14 0 -4 -17 -13 -37 -20 -35 -12 -384
-11 -552 0 -37 3 -55 0 -58 -8 -3 -7 -11 -13 -19 -13 -8 0 -14 -6 -15 -12 -3
-43 -1 -219 2 -221 36 -20 53 -24 104 -21 142 8 484 9 525 2 33 -6 53 -17 73
-40 75 -86 110 -117 164 -144 l58 -29 328 -2 327 -1 -30 28 c-16 15 -35 41
-41 56 -14 34 -19 452 -7 500 11 42 40 78 80 97 31 15 12 16 -300 14 -183 -1
-334 -3 -336 -4z"/>
<path d="M1670 1831 c-46 -24 -80 -75 -81 -120 0 -20 -1 -131 -1 -247 -1 -203
0 -213 21 -248 62 -100 231 -93 283 12 8 15 15 48 17 74 l2 46 -50 0 c-50 1
-51 0 -51 -28 0 -16 -10 -41 -23 -55 -18 -22 -28 -25 -50 -20 -15 4 -32 16
-37 26 -12 21 -15 414 -4 444 10 26 23 35 55 35 33 0 51 -20 58 -68 6 -34 8
-36 44 -35 20 0 42 1 47 2 17 2 11 73 -10 116 -37 77 -141 108 -220 66z"/>
<path d="M2062 1837 c-7 -9 -65 -258 -97 -412 -2 -11 -17 -77 -33 -147 l-29
-128 53 0 52 0 12 70 c13 76 8 73 93 72 56 0 56 0 63 -37 19 -106 15 -100 72
-103 l53 -3 -7 28 c-3 15 -8 36 -10 45 -3 9 -7 25 -9 35 -2 10 -11 52 -20 93
-10 41 -19 84 -21 95 -2 11 -17 79 -33 150 -35 151 -41 180 -48 218 -3 15 -8
28 -12 28 -31 8 -72 5 -79 -4z m62 -317 c4 -19 9 -46 11 -60 15 -76 18 -70
-36 -70 -45 0 -50 2 -44 19 3 11 7 28 9 38 2 10 9 50 15 88 21 117 23 116 45
-15z"/>
<path d="M2243 1843 c-8 -3 -9 -12 -3 -28 5 -12 12 -43 15 -66 4 -24 15 -84
25 -134 11 -49 21 -101 24 -115 2 -14 11 -57 20 -95 8 -39 17 -82 20 -95 2
-14 10 -55 17 -92 l14 -68 47 0 c27 0 48 4 48 9 0 5 27 141 60 302 52 253 64
313 73 374 1 5 -22 10 -50 11 -37 0 -53 -3 -54 -13 -1 -7 -2 -16 -3 -20 -1 -5
-5 -30 -10 -56 -4 -27 -9 -56 -11 -65 -1 -10 -8 -48 -14 -87 -6 -38 -13 -81
-15 -95 -3 -14 -8 -46 -12 -72 -8 -55 -24 -64 -25 -15 0 17 -2 39 -4 47 -4 18
-14 75 -20 115 -2 17 -7 44 -10 60 -3 17 -10 57 -16 90 -5 33 -12 69 -14 80
-2 11 -4 23 -4 26 -1 7 -79 8 -98 2z"/>
<path d="M2630 1498 l0 -348 150 0 150 0 0 50 c0 35 -4 50 -12 49 -7 -1 -52
-1 -100 0 l-86 1 0 98 1 97 86 5 86 5 -1 28 c-3 71 1 66 -66 65 -118 -1 -107
-11 -105 100 l2 97 75 2 c41 1 85 2 98 2 20 1 22 6 22 49 l0 48 -150 0 -150 1
0 -349z"/>
</g>
</svg>
